<svg width="509" height="491" viewBox="0 0 509 491" fill="none" xmlns="http://www.w3.org/2000/svg">
<g style="mix-blend-mode:darken" filter="url(#filter0_d_511_15)">
<clipPath id="ellipse2">
<path d="M505 224.959C505 303.219 375.733 483 254.847 483C133.961 483 35.9627 419.558 35.9627 341.298C35.9627 263.038 -53.6547 0 67.2317 0C188.118 0 505 146.699 505 224.959Z" fill="#D9D9D9"/>
<path d="M504.5 224.959C504.5 244.409 496.461 270.236 482.467 298.069C468.479 325.889 448.566 355.665 424.878 382.999C377.476 437.698 315.065 482.5 254.847 482.5C194.486 482.5 139.862 466.66 100.344 441.077C60.8211 415.49 36.4627 380.202 36.4627 341.298C36.4627 321.676 30.8494 290.507 24.3407 254.864L23.8808 252.347C17.4809 217.31 10.3214 178.114 6.7625 141.253C3.11679 103.493 3.25848 68.2574 11.8215 42.4801C16.1001 29.6001 22.4714 19.1127 31.4942 11.8447C40.5109 4.5815 52.217 0.5 67.2317 0.5C97.3742 0.5 139.786 9.64928 186.479 24.6207C233.161 39.5884 284.082 60.3619 331.227 83.5805C378.376 106.801 421.73 132.457 453.29 157.187C469.071 169.552 481.886 181.673 490.752 193.13C499.626 204.595 504.5 215.339 504.5 224.959Z" stroke="black"/>
</clipPath>
</g>
<defs>
<filter id="filter0_d_511_15" x="0" y="0" width="509" height="491" filterUnits="userSpaceOnUse" color-interpolation-filters="sRGB">
<feFlood flood-opacity="0" result="BackgroundImageFix"/>
<feColorMatrix in="SourceAlpha" type="matrix" values="0 0 0 0 0 0 0 0 0 0 0 0 0 0 0 0 0 0 127 0" result="hardAlpha"/>
<feOffset dy="4"/>
<feGaussianBlur stdDeviation="2"/>
<feComposite in2="hardAlpha" operator="out"/>
<feColorMatrix type="matrix" values="0 0 0 0 0 0 0 0 0 0 0 0 0 0 0 0 0 0 0.25 0"/>
<feBlend mode="normal" in2="BackgroundImageFix" result="effect1_dropShadow_511_15"/>
<feBlend mode="normal" in="SourceGraphic" in2="effect1_dropShadow_511_15" result="shape"/>
</filter>
</defs>
</svg>
