<svg width="575" height="353" viewBox="0 0 575 353" fill="none" xmlns="http://www.w3.org/2000/svg">
<g filter="url(#filter0_d_511_17)">
<clipPath id="ellipse4">
<path d="M571 256.178C571 332.124 423.543 345 321.175 345C218.806 345 4 283.433 4 207.487C4 131.54 149.06 -42.3912 301.603 9.51079C403.971 9.51079 571 180.232 571 256.178Z" fill="#D9D9D9"/>
<path d="M301.442 9.98415L301.52 10.0108H301.603C327.069 10.0108 356.613 20.6337 386.635 37.8066C416.647 54.9741 447.09 78.6609 474.344 104.726C501.598 130.791 525.649 159.221 542.882 185.868C560.129 212.535 570.5 237.342 570.5 256.178C570.5 274.974 561.387 289.884 546.055 301.7C530.709 313.528 509.152 322.236 484.351 328.585C434.754 341.281 372.349 344.5 321.175 344.5C270.063 344.5 190.829 329.124 124.374 304.255C91.1481 291.821 61.1482 277.025 39.4647 260.614C17.7615 244.189 4.5 226.23 4.5 207.487C4.5 188.634 13.5128 163.618 29.4758 137.475C45.4303 111.346 68.2941 84.1481 95.9195 60.9384C151.18 14.5104 225.401 -15.8886 301.442 9.98415Z" stroke="black"/>
</clipPath>
</g>
<defs>
<filter id="filter0_d_511_17" x="0" y="0" width="575" height="353" filterUnits="userSpaceOnUse" color-interpolation-filters="sRGB">
<feFlood flood-opacity="0" result="BackgroundImageFix"/>
<feColorMatrix in="SourceAlpha" type="matrix" values="0 0 0 0 0 0 0 0 0 0 0 0 0 0 0 0 0 0 127 0" result="hardAlpha"/>
<feOffset dy="4"/>
<feGaussianBlur stdDeviation="2"/>
<feComposite in2="hardAlpha" operator="out"/>
<feColorMatrix type="matrix" values="0 0 0 0 0 0 0 0 0 0 0 0 0 0 0 0 0 0 0.25 0"/>
<feBlend mode="normal" in2="BackgroundImageFix" result="effect1_dropShadow_511_17"/>
<feBlend mode="normal" in="SourceGraphic" in2="effect1_dropShadow_511_17" result="shape"/>
</filter>
</defs>
</svg>
