<svg width="537" height="394" viewBox="0 0 537 394" fill="none" xmlns="http://www.w3.org/2000/svg">
<g filter="url(#filter0_d_511_18)">
<clipPath id="ellipse5">
<path d="M397.993 190.106C752.22 446.754 309.795 377.488 200.997 377.488C92.1984 377.488 4 293.595 4 190.106C4 86.6184 92.1984 2.72474 200.997 2.72474C309.795 2.72474 421.241 -37.3762 397.993 190.106Z" fill="#D9D9D9"/>
<path d="M397.496 190.056L397.467 190.342L397.7 190.511C441.966 222.583 473.77 249.551 495.331 272.189C516.903 294.837 528.176 313.103 531.464 327.767C533.105 335.088 532.754 341.502 530.71 347.12C528.666 352.739 524.915 357.599 519.702 361.79C509.261 370.184 492.996 375.862 473.039 379.548C433.138 386.919 378.758 386.285 327.514 383.801C306.632 382.789 286.265 381.469 267.621 380.261C240.551 378.507 217.111 376.988 200.997 376.988C92.4507 376.988 4.5 293.295 4.5 190.106C4.5 86.9179 92.4507 3.22474 200.997 3.22474C214.61 3.22474 228.263 2.59754 241.676 1.94537C242.513 1.90469 243.349 1.86391 244.183 1.82318C256.735 1.21077 269.061 0.609404 280.95 0.513366C306.319 0.308446 329.627 2.40705 348.797 11.5608C367.937 20.7001 383.002 36.8969 391.843 65.0088C400.692 93.1451 403.305 133.213 397.496 190.056Z" stroke="black"/>
</clipPath>
</g>
<defs>
<filter id="filter0_d_511_18" x="0" y="0" width="537" height="394" filterUnits="userSpaceOnUse" color-interpolation-filters="sRGB">
<feFlood flood-opacity="0" result="BackgroundImageFix"/>
<feColorMatrix in="SourceAlpha" type="matrix" values="0 0 0 0 0 0 0 0 0 0 0 0 0 0 0 0 0 0 127 0" result="hardAlpha"/>
<feOffset dy="4"/>
<feGaussianBlur stdDeviation="2"/>
<feComposite in2="hardAlpha" operator="out"/>
<feColorMatrix type="matrix" values="0 0 0 0 0 0 0 0 0 0 0 0 0 0 0 0 0 0 0.25 0"/>
<feBlend mode="normal" in2="BackgroundImageFix" result="effect1_dropShadow_511_18"/>
<feBlend mode="normal" in="SourceGraphic" in2="effect1_dropShadow_511_18" result="shape"/>
</filter>
</defs>
</svg>
