<svg width="458" height="446" viewBox="0 0 458 446" fill="none" xmlns="http://www.w3.org/2000/svg">
<g filter="url(#filter0_d_511_14)">
<clipPath id="ellipse1">
<path d="M454 254.369C454 355.785 381.838 438 292.821 438C203.804 438 4 344.353 4 242.937C4 141.52 187.786 0 276.803 0C365.82 0 454 152.952 454 254.369Z" fill="#D9D9D9"/>
<path d="M453.5 254.369C453.5 355.573 381.502 437.5 292.821 437.5C248.435 437.5 176.319 414.133 115.284 378.069C84.7735 360.042 57.0634 338.86 36.9869 315.872C16.9071 292.879 4.5 268.124 4.5 242.937C4.5 217.725 15.9271 189.963 34.5217 162.473C53.1107 134.991 78.8315 107.826 107.342 83.8194C135.852 59.8135 167.138 38.977 196.847 24.1444C226.567 9.30619 254.662 0.5 276.803 0.5C298.912 0.5 321.01 9.99816 341.74 25.8803C362.469 41.7609 381.8 64.0023 398.364 89.4259C431.498 140.283 453.5 203.781 453.5 254.369Z" stroke="black"/>
</clipPath>
</g>
<defs>
<filter id="filter0_d_511_14" x="0" y="0" width="458" height="446" filterUnits="userSpaceOnUse" color-interpolation-filters="sRGB">
<feFlood flood-opacity="0" result="BackgroundImageFix"/>
<feColorMatrix in="SourceAlpha" type="matrix" values="0 0 0 0 0 0 0 0 0 0 0 0 0 0 0 0 0 0 127 0" result="hardAlpha"/>
<feOffset dy="4"/>
<feGaussianBlur stdDeviation="2"/>
<feComposite in2="hardAlpha" operator="out"/>
<feColorMatrix type="matrix" values="0 0 0 0 0 0 0 0 0 0 0 0 0 0 0 0 0 0 0.25 0"/>
<feBlend mode="normal" in2="BackgroundImageFix" result="effect1_dropShadow_511_14"/>
<feBlend mode="normal" in="SourceGraphic" in2="effect1_dropShadow_511_14" result="shape"/>
</filter>
</defs>
</svg>
